<svg width="1920" height="1005.514" viewBox="0 0 508 266.042" xml:space="preserve" xmlns="http://www.w3.org/2000/svg"><defs><filter style="color-interpolation-filters:sRGB" id="f" x="-.012" y="-.038" width="1.025" height="1.079"><feFlood flood-opacity=".498" flood-color="#000" result="flood"/><feComposite in="flood" in2="SourceGraphic" operator="in" result="composite1"/><feGaussianBlur in="composite1" stdDeviation=".5" result="blur"/><feOffset dy=".1" result="offset"/><feComposite in="SourceGraphic" in2="offset" result="composite2"/></filter><filter style="color-interpolation-filters:sRGB" id="a" x="-.011" y="-.006" width="1.023" height="1.012"><feFlood flood-opacity=".498" flood-color="#000" result="flood"/><feComposite in="flood" in2="SourceGraphic" operator="in" result="composite1"/><feGaussianBlur in="composite1" stdDeviation=".5" result="blur"/><feOffset dy=".1" result="offset"/><feComposite in="SourceGraphic" in2="offset" result="composite2"/></filter><filter style="color-interpolation-filters:sRGB" id="c" x="-.011" y="-.006" width="1.023" height="1.012"><feFlood flood-opacity=".498" flood-color="#000" result="flood"/><feComposite in="flood" in2="SourceGraphic" operator="in" result="composite1"/><feGaussianBlur in="composite1" stdDeviation=".5" result="blur"/><feOffset dy=".1" result="offset"/><feComposite in="SourceGraphic" in2="offset" result="composite2"/></filter><filter style="color-interpolation-filters:sRGB" id="d" x="-.011" y="-.006" width="1.023" height="1.012"><feFlood flood-opacity=".498" flood-color="#000" result="flood"/><feComposite in="flood" in2="SourceGraphic" operator="in" result="composite1"/><feGaussianBlur in="composite1" stdDeviation=".5" result="blur"/><feOffset dy=".1" result="offset"/><feComposite in="SourceGraphic" in2="offset" result="composite2"/></filter><filter style="color-interpolation-filters:sRGB" id="e" x="-.012" y="-.032" width="1.025" height="1.067"><feFlood flood-opacity=".498" flood-color="#000" result="flood"/><feComposite in="flood" in2="SourceGraphic" operator="in" result="composite1"/><feGaussianBlur in="composite1" stdDeviation=".5" result="blur"/><feOffset dy=".1" result="offset"/><feComposite in="SourceGraphic" in2="offset" result="composite2"/></filter><filter style="color-interpolation-filters:sRGB" id="i" x="-.012" y="-.023" width="1.025" height="1.047"><feFlood flood-opacity=".498" flood-color="#000" result="flood"/><feComposite in="flood" in2="SourceGraphic" operator="in" result="composite1"/><feGaussianBlur in="composite1" stdDeviation=".5" result="blur"/><feOffset dy=".1" result="offset"/><feComposite in="SourceGraphic" in2="offset" result="composite2"/></filter><filter style="color-interpolation-filters:sRGB" id="b" x="-.011" y="-.006" width="1.023" height="1.012"><feFlood flood-opacity=".498" flood-color="#000" result="flood"/><feComposite in="flood" in2="SourceGraphic" operator="in" result="composite1"/><feGaussianBlur in="composite1" stdDeviation=".5" result="blur"/><feOffset dy=".1" result="offset"/><feComposite in="SourceGraphic" in2="offset" result="composite2"/></filter><filter style="color-interpolation-filters:sRGB" id="h" x="-.012" y="-.028" width="1.025" height="1.059"><feFlood flood-opacity=".498" flood-color="#000" result="flood"/><feComposite in="flood" in2="SourceGraphic" operator="in" result="composite1"/><feGaussianBlur in="composite1" stdDeviation=".5" result="blur"/><feOffset dy=".1" result="offset"/><feComposite in="SourceGraphic" in2="offset" result="composite2"/></filter><filter style="color-interpolation-filters:sRGB" id="k" x="-.012" y="-.014" width="1.025" height="1.03"><feFlood flood-opacity=".498" flood-color="#000" result="flood"/><feComposite in="flood" in2="SourceGraphic" operator="in" result="composite1"/><feGaussianBlur in="composite1" stdDeviation=".5" result="blur"/><feOffset dy=".1" result="offset"/><feComposite in="SourceGraphic" in2="offset" result="composite2"/></filter><filter style="color-interpolation-filters:sRGB" id="g" x="-.012" y="-.045" width="1.025" height="1.094"><feFlood flood-opacity=".498" flood-color="#000" result="flood"/><feComposite in="flood" in2="SourceGraphic" operator="in" result="composite1"/><feGaussianBlur in="composite1" stdDeviation=".5" result="blur"/><feOffset dy=".1" result="offset"/><feComposite in="SourceGraphic" in2="offset" result="composite2"/></filter><filter style="color-interpolation-filters:sRGB" id="j" x="-.012" y="-.023" width="1.025" height="1.047"><feFlood flood-opacity=".498" flood-color="#000" result="flood"/><feComposite in="flood" in2="SourceGraphic" operator="in" result="composite1"/><feGaussianBlur in="composite1" stdDeviation=".5" result="blur"/><feOffset dy=".1" result="offset"/><feComposite in="SourceGraphic" in2="offset" result="composite2"/></filter><filter style="color-interpolation-filters:sRGB" id="l" x="-.012" y="-.014" width="1.025" height="1.03"><feFlood flood-opacity=".498" flood-color="#000" result="flood"/><feComposite in="flood" in2="SourceGraphic" operator="in" result="composite1"/><feGaussianBlur in="composite1" stdDeviation=".5" result="blur"/><feOffset dy=".1" result="offset"/><feComposite in="SourceGraphic" in2="offset" result="composite2"/></filter></defs><path style="fill:#008299;fill-opacity:1;stroke-width:.0851663" d="M0 0h508v266.042H0z"/><text xml:space="preserve" style="font-style:normal;font-weight:400;font-size:22.5778px;line-height:1.25;font-family:sans-serif;white-space:pre;inline-size:208.808;display:inline;fill:#fff;fill-opacity:1;stroke:none;stroke-width:.264583" x="213.078" y="23.312" transform="matrix(1 0 0 1.00576 -38.699 2.279)"><tspan x="213.078" y="23.312"><tspan style="font-weight:700;-inkscape-font-specification:'sans-serif Bold'">Kanban Board</tspan></tspan></text><g style="filter:url(#a)" transform="translate(0 -13.278)"><path style="fill:#f1f2f4;fill-opacity:1;stroke-width:.1" d="M21.167 52.917h97.366a4.233 4.233 45 0 1 4.234 4.233v199.704a4.233 4.233 135 0 1-4.234 4.233H21.167a4.233 4.233 45 0 1-4.234-4.233V57.15a4.233 4.233 135 0 1 4.234-4.233z"/><path style="fill:#f48897;fill-opacity:1;stroke-width:.156204" d="M16.933 65.617v-8.462a4.238 4.238 135 0 1 4.239-4.238h97.4a4.194 4.194 45 0 1 4.195 4.194v21.206H16.933Z"/><text xml:space="preserve" style="font-style:normal;font-variant:normal;font-weight:700;font-stretch:normal;font-size:11.2889px;line-height:1.25;font-family:sans-serif;-inkscape-font-specification:'sans-serif Bold';fill:#172b4d;fill-opacity:1;stroke:none;stroke-width:.264583" x="47.391" y="68.552"><tspan style="font-style:normal;font-variant:normal;font-weight:700;font-stretch:normal;font-size:11.2889px;font-family:sans-serif;-inkscape-font-specification:'sans-serif Bold';fill:#172b4d;fill-opacity:1;stroke-width:.264583" x="47.391" y="68.552">Backlog</tspan></text></g><path style="fill:#f1f2f4;fill-opacity:1;stroke-width:.1;filter:url(#b)" d="M143.933 52.917H241.3a4.233 4.233 45 0 1 4.233 4.233v199.704a4.233 4.233 135 0 1-4.233 4.233h-97.367a4.233 4.233 45 0 1-4.233-4.233V57.15a4.233 4.233 135 0 1 4.233-4.233z" transform="translate(0 -13.278)"/><path style="fill:#f4e688;fill-opacity:1;stroke-width:.156204" d="M139.7 65.617v-8.462a4.238 4.238 135 0 1 4.238-4.238H241.34a4.194 4.194 45 0 1 4.194 4.194v21.206H139.7Z" transform="translate(0 -13.278)"/><text xml:space="preserve" style="font-style:normal;font-weight:400;font-size:11.2889px;line-height:1.25;font-family:sans-serif;fill:#172b4d;fill-opacity:1;stroke:none;stroke-width:.264583" x="175.875" y="68.552" transform="translate(0 -13.278)"><tspan style="font-style:normal;font-variant:normal;font-weight:700;font-stretch:normal;font-size:11.2889px;font-family:sans-serif;-inkscape-font-specification:'sans-serif Bold';fill:#172b4d;fill-opacity:1;stroke-width:.264583" x="175.875" y="68.552">Doing</tspan></text><path style="fill:#f1f2f4;fill-opacity:1;stroke-width:.1;filter:url(#c)" d="M266.7 52.917h97.367a4.233 4.233 45 0 1 4.233 4.233v199.704a4.233 4.233 135 0 1-4.233 4.233H266.7a4.233 4.233 45 0 1-4.233-4.233V57.15a4.233 4.233 135 0 1 4.233-4.233z" transform="translate(0 -13.278)"/><path style="fill:#88f48e;fill-opacity:1;stroke-width:.156204" d="M262.467 65.617v-8.462a4.238 4.238 135 0 1 4.238-4.238H364.102a4.194 4.194 45 0 1 4.195 4.194v21.206h-105.83z" transform="translate(0 -13.278)"/><text xml:space="preserve" style="font-style:normal;font-weight:400;font-size:11.2889px;line-height:1.25;font-family:sans-serif;fill:#172b4d;fill-opacity:1;stroke:none;stroke-width:.264583" x="294.994" y="69.85" transform="translate(0 -13.278)"><tspan style="font-style:normal;font-variant:normal;font-weight:700;font-stretch:normal;font-size:11.2889px;font-family:sans-serif;-inkscape-font-specification:'sans-serif Bold';fill:#172b4d;fill-opacity:1;stroke-width:.264583" x="294.994" y="69.85">Review</tspan></text><path style="fill:#f1f2f4;fill-opacity:1;stroke-width:.1;filter:url(#d)" d="M389.467 52.917h97.366a4.233 4.233 45 0 1 4.234 4.233v199.704a4.233 4.233 135 0 1-4.234 4.233h-97.366a4.233 4.233 45 0 1-4.234-4.233V57.15a4.233 4.233 135 0 1 4.234-4.233z" transform="translate(0 -13.278)"/><path style="fill:#88e2f4;fill-opacity:1;stroke-width:.156204" d="M385.233 65.617v-8.462a4.238 4.238 135 0 1 4.239-4.238H486.869a4.194 4.194 45 0 1 4.194 4.194v21.206h-105.83z" transform="translate(0 -13.278)"/><text xml:space="preserve" style="font-style:normal;font-weight:400;font-size:11.2889px;line-height:1.25;font-family:sans-serif;fill:#172b4d;fill-opacity:1;stroke:none;stroke-width:.264583" x="423.168" y="69.59" transform="translate(0 -13.278)"><tspan style="font-style:normal;font-variant:normal;font-weight:700;font-stretch:normal;font-size:11.2889px;font-family:sans-serif;-inkscape-font-specification:'sans-serif Bold';fill:#172b4d;fill-opacity:1;stroke-width:.264583" x="423.168" y="69.59">Done</tspan></text><path style="fill:#fff;fill-opacity:1;stroke-width:.103278;filter:url(#e)" d="M24.773 69.272h88.9a4.233 4.233 45 0 1 4.233 4.233v28.575a4.233 4.233 135 0 1-4.233 4.234h-88.9a4.233 4.233 45 0 1-4.234-4.234V73.505a4.233 4.233 135 0 1 4.234-4.233z"/><path style="fill:#fff;fill-opacity:1;stroke-width:.103278;filter:url(#f)" d="M270.933 69.272h88.9a4.233 4.233 45 0 1 4.234 4.233V96.79a4.233 4.233 135 0 1-4.234 4.233h-88.9a4.233 4.233 45 0 1-4.233-4.233V73.505a4.233 4.233 135 0 1 4.233-4.233z"/><path style="fill:#fff;fill-opacity:1;stroke-width:.103278;filter:url(#g)" d="M393.7 204.739h88.9a4.233 4.233 45 0 1 4.233 4.233v17.992a4.233 4.233 135 0 1-4.233 4.233h-88.9a4.233 4.233 45 0 1-4.233-4.233v-17.992a4.233 4.233 135 0 1 4.233-4.233z"/><path style="fill:#fff;fill-opacity:1;stroke-width:.103278;filter:url(#h)" d="M393.7 69.272h88.9a4.233 4.233 45 0 1 4.233 4.233v33.867a4.233 4.233 135 0 1-4.233 4.233h-88.9a4.233 4.233 45 0 1-4.233-4.233V73.505a4.233 4.233 135 0 1 4.233-4.233z"/><path style="fill:#bdbdbd;fill-opacity:1;stroke-width:.0970141" d="M28.433 85.583h46.038a4.233 4.233 45 0 1 4.233 4.234 4.233 4.233 135 0 1-4.233 4.233H28.433a4.233 4.233 45 0 1-4.233-4.233 4.233 4.233 135 0 1 4.233-4.234z" transform="translate(0 -13.278)"/><path style="fill:#bdbdbd;fill-opacity:1;stroke-width:.115416" d="M28.433 98.283H97.11a4.233 4.233 45 0 1 4.233 4.234 4.233 4.233 135 0 1-4.233 4.233H28.433a4.233 4.233 45 0 1-4.233-4.233 4.233 4.233 135 0 1 4.233-4.234z" transform="translate(0 -13.278)"/><path style="fill:#bdbdbd;fill-opacity:1;stroke-width:.115416" d="M396.733 207.772h68.676a4.233 4.233 45 0 1 4.233 4.233 4.233 4.233 135 0 1-4.233 4.234h-68.676a4.233 4.233 45 0 1-4.233-4.234 4.233 4.233 135 0 1 4.233-4.233z"/><path style="fill:#bdbdbd;fill-opacity:1;stroke-width:.0970141" d="M273.967 85.583h46.037a4.233 4.233 45 0 1 4.234 4.234 4.233 4.233 135 0 1-4.234 4.233h-46.037a4.233 4.233 45 0 1-4.234-4.233 4.233 4.233 135 0 1 4.234-4.234z" transform="translate(0 -13.278)"/><path style="fill:#bdbdbd;fill-opacity:1;stroke-width:.115416" d="M273.967 98.283h68.675a4.233 4.233 45 0 1 4.233 4.234 4.233 4.233 135 0 1-4.233 4.233h-68.675a4.233 4.233 45 0 1-4.234-4.233 4.233 4.233 135 0 1 4.234-4.234z" transform="translate(0 -13.278)"/><path style="fill:#fff;fill-opacity:1;stroke-width:.103278;filter:url(#i)" d="M148.167 82.55h88.9a4.233 4.233 45 0 1 4.233 4.233v44.45a4.233 4.233 135 0 1-4.233 4.234h-88.9a4.233 4.233 45 0 1-4.234-4.234v-44.45a4.233 4.233 135 0 1 4.234-4.233z" transform="translate(0 -13.278)"/><path style="fill:#bdbdbd;fill-opacity:1;stroke-width:.0970141" d="M151.2 98.283h46.038a4.233 4.233 45 0 1 4.233 4.234 4.233 4.233 135 0 1-4.233 4.233H151.2a4.233 4.233 45 0 1-4.233-4.233 4.233 4.233 135 0 1 4.233-4.234z" transform="translate(0 -13.278)"/><path style="fill:#bdbdbd;fill-opacity:1;stroke-width:.106015" d="M151.2 110.983h56.621a4.233 4.233 45 0 1 4.233 4.234 4.233 4.233 135 0 1-4.233 4.233H151.2a4.233 4.233 45 0 1-4.234-4.233 4.233 4.233 135 0 1 4.233-4.234z" transform="translate(0 -13.278)"/><path style="fill:#bdbdbd;fill-opacity:1;stroke-width:.115416" d="M151.2 85.583h68.675a4.233 4.233 45 0 1 4.234 4.234 4.233 4.233 135 0 1-4.234 4.233H151.2a4.233 4.233 45 0 1-4.233-4.233 4.233 4.233 135 0 1 4.233-4.234z" transform="translate(0 -13.278)"/><path style="fill:#fff;fill-opacity:1;stroke-width:.103278;filter:url(#j)" d="M148.167 82.55h88.9a4.233 4.233 45 0 1 4.233 4.233v44.45a4.233 4.233 135 0 1-4.233 4.234h-88.9a4.233 4.233 45 0 1-4.234-4.234v-44.45a4.233 4.233 135 0 1 4.234-4.233z" transform="translate(122.767 25.205)"/><path style="fill:#bdbdbd;fill-opacity:1;stroke-width:.0970141" d="M151.2 98.283h46.038a4.233 4.233 45 0 1 4.233 4.234 4.233 4.233 135 0 1-4.233 4.233H151.2a4.233 4.233 45 0 1-4.233-4.233 4.233 4.233 135 0 1 4.233-4.234z" transform="translate(122.767 25.205)"/><path style="fill:#bdbdbd;fill-opacity:1;stroke-width:.106015" d="M151.2 110.983h56.621a4.233 4.233 45 0 1 4.233 4.234 4.233 4.233 135 0 1-4.233 4.233H151.2a4.233 4.233 45 0 1-4.234-4.233 4.233 4.233 135 0 1 4.233-4.234z" transform="translate(122.767 25.205)"/><path style="fill:#bdbdbd;fill-opacity:1;stroke-width:.115416" d="M151.2 85.583h68.675a4.233 4.233 45 0 1 4.234 4.234 4.233 4.233 135 0 1-4.234 4.233H151.2a4.233 4.233 45 0 1-4.233-4.233 4.233 4.233 135 0 1 4.233-4.234z" transform="translate(122.767 25.205)"/><path style="fill:#bdbdbd;fill-opacity:1;stroke-width:.0970141" d="M396.733 98.283h46.038a4.233 4.233 45 0 1 4.233 4.234 4.233 4.233 135 0 1-4.233 4.233h-46.038a4.233 4.233 45 0 1-4.233-4.233 4.233 4.233 135 0 1 4.233-4.234z" transform="translate(0 -13.278)"/><path style="fill:#bdbdbd;fill-opacity:1;stroke-width:.106015" d="M396.733 110.983h56.621a4.233 4.233 45 0 1 4.234 4.234 4.233 4.233 135 0 1-4.234 4.233h-56.62a4.233 4.233 45 0 1-4.234-4.233 4.233 4.233 135 0 1 4.233-4.234z" transform="translate(0 -13.278)"/><path style="fill:#bdbdbd;fill-opacity:1;stroke-width:.115416" d="M396.733 85.583h68.676a4.233 4.233 45 0 1 4.233 4.234 4.233 4.233 135 0 1-4.233 4.233h-68.676a4.233 4.233 45 0 1-4.233-4.233 4.233 4.233 135 0 1 4.233-4.234z" transform="translate(0 -13.278)"/><path style="fill:#fff;fill-opacity:1;stroke-width:.103278;filter:url(#k)" d="M393.7 129.117h88.9a4.233 4.233 45 0 1 4.233 4.233v76.2a4.233 4.233 135 0 1-4.233 4.233h-88.9a4.233 4.233 45 0 1-4.233-4.233v-76.2a4.233 4.233 135 0 1 4.233-4.233z" transform="translate(0 -13.278)"/><g transform="translate(0 -13.278)"><path style="fill:#bdbdbd;fill-opacity:1;stroke-width:.096542" d="M398.595 133.88h45.508a4.233 4.233 45 0 1 4.233 4.232 4.233 4.233 135 0 1-4.233 4.234h-45.508a4.233 4.233 45 0 1-4.234-4.234 4.233 4.233 135 0 1 4.234-4.233z" transform="translate(-1.861 -1.73)"/><path style="fill:#bdbdbd;fill-opacity:1;stroke-width:.0825077" d="M398.595 147.108h30.956a4.233 4.233 45 0 1 4.233 4.234 4.233 4.233 135 0 1-4.233 4.233h-30.956a4.233 4.233 45 0 1-4.234-4.233 4.233 4.233 135 0 1 4.234-4.234zM398.595 160.602h30.956a4.233 4.233 45 0 1 4.233 4.233 4.233 4.233 135 0 1-4.233 4.234h-30.956a4.233 4.233 45 0 1-4.234-4.234 4.233 4.233 135 0 1 4.234-4.233z" transform="translate(-1.861 -1.73)"/><ellipse style="fill:#bdbdbd;fill-opacity:1;stroke-width:.1" cx="463.956" cy="190.874" rx="19.844" ry="19.976"/></g><path style="fill:#fff;fill-opacity:1;stroke-width:.103278;filter:url(#l)" d="M393.7 129.117h88.9a4.233 4.233 45 0 1 4.233 4.233v76.2a4.233 4.233 135 0 1-4.233 4.233h-88.9a4.233 4.233 45 0 1-4.233-4.233v-76.2a4.233 4.233 135 0 1 4.233-4.233z" transform="translate(-368.927 -16.07)"/><g transform="translate(-368.927 -16.07)"><path style="fill:#bdbdbd;fill-opacity:1;stroke-width:.096542" d="M398.595 133.88h45.508a4.233 4.233 45 0 1 4.233 4.232 4.233 4.233 135 0 1-4.233 4.234h-45.508a4.233 4.233 45 0 1-4.234-4.234 4.233 4.233 135 0 1 4.234-4.233z" transform="translate(-1.861 -1.73)"/><path style="fill:#bdbdbd;fill-opacity:1;stroke-width:.0825077" d="M398.595 147.108h30.956a4.233 4.233 45 0 1 4.233 4.234 4.233 4.233 135 0 1-4.233 4.233h-30.956a4.233 4.233 45 0 1-4.234-4.233 4.233 4.233 135 0 1 4.234-4.234zM398.595 160.602h30.956a4.233 4.233 45 0 1 4.233 4.233 4.233 4.233 135 0 1-4.233 4.234h-30.956a4.233 4.233 45 0 1-4.234-4.234 4.233 4.233 135 0 1 4.234-4.233z" transform="translate(-1.861 -1.73)"/><ellipse style="fill:#bdbdbd;fill-opacity:1;stroke-width:.1" cx="463.956" cy="190.874" rx="19.844" ry="19.976"/></g></svg>